<svg width="351" height="368" viewBox="0 0 351 368" fill="none" xmlns="http://www.w3.org/2000/svg">
<path fill-rule="evenodd" clip-rule="evenodd" d="M56.7798 0.619919C27.5531 4.88601 3.9186 30.2947 0.693407 60.9179C-0.216299 69.5576 -0.237806 210.023 0.66975 219.347C3.36446 247.038 5.06632 248.996 79.0673 309.484C151.944 369.053 150.21 367.999 175.235 367.999C200.387 367.999 199.675 368.432 272.268 308.891C346.793 247.765 347.107 247.398 349.816 218.538C351.244 203.331 350.35 59.5465 348.787 52.9413C342.282 25.4494 320.008 4.48098 293.183 0.59913C287.573 -0.213082 62.3492 -0.19301 56.7798 0.619919ZM101.182 26.767C136.959 31.4761 169.265 48.0738 191.345 73.0896C196.837 79.3121 197.091 80.0311 193.384 78.8525C174.631 72.8904 133.571 79.312 101.843 93.1706C70.5824 106.824 50.0993 123.007 28.8305 150.853L27.234 152.945L27.4247 106.706C27.6376 55.2267 27.3889 57.9759 32.7518 47.7146C42.1299 29.77 66.7471 22.2342 101.182 26.767ZM293.877 28.3792C349.167 47.0135 322.039 147.409 250.762 187.941L247.435 189.833L249.101 185.009C265.114 138.67 236.241 70.6093 184.017 31.5844C180.567 29.0065 177.744 26.7727 177.744 26.6208C177.744 25.2508 289.62 26.9441 293.877 28.3792ZM191.006 106.251C231.132 119.214 240.533 171.583 207.39 197.528C173.34 224.183 122.94 199.692 123.022 156.529C123.089 120.833 157.461 95.4136 191.006 106.251ZM102.385 124.091C96.3997 139.097 95.0792 148.437 96.0764 168.716C99.417 236.665 155.918 296.31 225.774 305.63C227.943 305.919 230.119 306.375 230.611 306.641C231.426 307.084 218.05 318.421 201.441 331.365C187.695 342.079 172.809 344.141 158.273 337.346C153.215 334.982 155.164 336.523 92.9573 285.697C28.1201 232.72 29.3868 234.022 30.3811 221.406C33.245 185.062 53.2514 152.876 86.9815 130.348C91.7071 127.192 103.138 120.351 103.717 120.332C103.81 120.329 103.211 122.021 102.385 124.091ZM322.578 217.821C320.695 233.502 311.098 244.132 272.371 273.43C250.587 289.91 201.803 279.943 165.996 251.697C157.733 245.178 142.506 228.992 145.844 230.275C194.991 249.167 280.225 215.38 318.053 162.009L322.91 155.158L323.11 183.443C323.224 199.617 322.996 214.337 322.578 217.821Z" fill="#1772C9"/>
</svg>
